<svg width="226" height="32" viewBox="0 0 226 32" fill="none" xmlns="http://www.w3.org/2000/svg">
<path d="M55.3409 9.64206C55.017 7.23013 53.0738 5.73865 49.767 5.73865C46.4176 5.73865 44.2102 7.28979 44.2187 9.81252C44.2102 11.7727 45.446 13.0426 48.0028 13.554L50.2699 14.0057C51.4119 14.2358 51.9318 14.6534 51.9488 15.3097C51.9318 16.0852 51.088 16.6392 49.8182 16.6392C48.5227 16.6392 47.6619 16.0852 47.4403 15.0199L43.8693 15.2074C44.2102 17.7131 46.3409 19.2557 49.8096 19.2557C53.2017 19.2557 55.6307 17.5256 55.6392 14.9432C55.6307 13.0512 54.3949 11.9176 51.8551 11.3977L49.4858 10.9205C48.267 10.6563 47.8153 10.2387 47.8238 9.60797C47.8153 8.82388 48.7017 8.31251 49.8267 8.31251C51.088 8.31251 51.838 9.00286 52.017 9.84661L55.3409 9.64206Z" fill="#F8F8F8"/>
<path d="M57.9254 23.9091H61.5561V16.9034H61.6669C62.1697 17.9943 63.2692 19.2131 65.3828 19.2131C68.3657 19.2131 70.6924 16.8523 70.6924 12.4716C70.6924 7.97161 68.2635 5.73865 65.3913 5.73865C63.201 5.73865 62.1527 7.04263 61.6669 8.10797H61.5049V5.9091H57.9254V23.9091ZM61.4794 12.4546C61.4794 10.1193 62.468 8.62786 64.2322 8.62786C66.0305 8.62786 66.9851 10.1875 66.9851 12.4546C66.9851 14.7387 66.0135 16.3239 64.2322 16.3239C62.4851 16.3239 61.4794 14.7898 61.4794 12.4546Z" fill="#F8F8F8"/>
<path d="M76.8459 19.2472C78.7805 19.2472 80.0334 18.4034 80.6726 17.1847H80.7748V19H84.218V10.1705C84.218 7.05115 81.576 5.73865 78.6612 5.73865C75.5248 5.73865 73.4623 7.23865 72.9595 9.62502L76.3174 9.89774C76.5646 9.02842 77.3402 8.38922 78.6441 8.38922C79.8799 8.38922 80.5873 9.01138 80.5873 10.0852V10.1364C80.5873 10.9801 79.6924 11.0909 77.4169 11.3125C74.826 11.5512 72.4993 12.4205 72.4993 15.3438C72.4993 17.9347 74.3487 19.2472 76.8459 19.2472ZM77.8856 16.7415C76.7691 16.7415 75.968 16.2216 75.968 15.2244C75.968 14.2017 76.8118 13.6989 78.0902 13.5199C78.8828 13.4091 80.1782 13.2216 80.6129 12.9318V14.321C80.6129 15.6932 79.4794 16.7415 77.8856 16.7415Z" fill="#F8F8F8"/>
<path d="M92.9495 19.2557C96.4353 19.2557 98.6257 17.2102 98.7961 14.2017H95.37C95.1569 15.5994 94.2365 16.3835 92.9922 16.3835C91.2961 16.3835 90.1967 14.9602 90.1967 12.4546C90.1967 9.98297 91.3047 8.5682 92.9922 8.5682C94.3217 8.5682 95.174 9.44604 95.37 10.75H98.7961C98.6427 7.72445 96.3501 5.73865 92.9325 5.73865C88.9609 5.73865 86.5064 8.49149 86.5064 12.5057C86.5064 16.4858 88.9183 19.2557 92.9495 19.2557Z" fill="#F8F8F8"/>
<path d="M107.087 19.2557C110.325 19.2557 112.507 17.679 113.018 15.25L109.66 15.0284C109.294 16.0256 108.357 16.5455 107.146 16.5455C105.331 16.5455 104.18 15.3438 104.18 13.3921V13.3835H113.095V12.3864C113.095 7.93752 110.402 5.73865 106.942 5.73865C103.089 5.73865 100.592 8.47445 100.592 12.5142C100.592 16.6648 103.055 19.2557 107.087 19.2557ZM104.18 11.1335C104.257 9.64206 105.391 8.44888 107.001 8.44888C108.578 8.44888 109.669 9.57388 109.678 11.1335H104.18Z" fill="#F8F8F8"/>
<path d="M122.428 5.9091H119.964V2.77274H116.334V5.9091H114.544V8.63638H116.334V15.4546C116.317 18.0199 118.064 19.2898 120.697 19.179C121.635 19.1449 122.3 18.9574 122.666 18.8381L122.095 16.1364C121.916 16.1705 121.533 16.2557 121.192 16.2557C120.467 16.2557 119.964 15.983 119.964 14.9773V8.63638H122.428V5.9091Z" fill="#F8F8F8"/>
<path d="M124.793 19H128.423V11.5938C128.423 9.98297 129.599 8.87502 131.202 8.87502C131.705 8.87502 132.395 8.96024 132.736 9.07104V5.84945C132.412 5.77274 131.96 5.7216 131.594 5.7216C130.128 5.7216 128.926 6.57388 128.449 8.1932H128.312V5.9091H124.793V19Z" fill="#F8F8F8"/>
<path d="M137.971 19.2472C139.906 19.2472 141.158 18.4034 141.798 17.1847H141.9V19H145.343V10.1705C145.343 7.05115 142.701 5.73865 139.786 5.73865C136.65 5.73865 134.587 7.23865 134.084 9.62502L137.442 9.89774C137.69 9.02842 138.465 8.38922 139.769 8.38922C141.005 8.38922 141.712 9.01138 141.712 10.0852V10.1364C141.712 10.9801 140.817 11.0909 138.542 11.3125C135.951 11.5512 133.624 12.4205 133.624 15.3438C133.624 17.9347 135.474 19.2472 137.971 19.2472ZM139.011 16.7415C137.894 16.7415 137.093 16.2216 137.093 15.2244C137.093 14.2017 137.937 13.6989 139.215 13.5199C140.008 13.4091 141.303 13.2216 141.738 12.9318V14.321C141.738 15.6932 140.604 16.7415 139.011 16.7415Z" fill="#F8F8F8"/>
<path d="M159.896 5.9091H156.052L153.342 15.2756H153.205L150.486 5.9091H146.651L151.228 19H155.319L159.896 5.9091Z" fill="#F8F8F8"/>
<path d="M167.274 19.2557C170.513 19.2557 172.695 17.679 173.206 15.25L169.848 15.0284C169.482 16.0256 168.544 16.5455 167.334 16.5455C165.518 16.5455 164.368 15.3438 164.368 13.3921V13.3835H173.283V12.3864C173.283 7.93752 170.589 5.73865 167.129 5.73865C163.277 5.73865 160.78 8.47445 160.78 12.5142C160.78 16.6648 163.243 19.2557 167.274 19.2557ZM164.368 11.1335C164.445 9.64206 165.578 8.44888 167.189 8.44888C168.766 8.44888 169.857 9.57388 169.865 11.1335H164.368Z" fill="#F8F8F8"/>
<path d="M179.283 1.54547H175.652V19H179.283V1.54547Z" fill="#F8F8F8"/>
<path d="M182.191 19H185.822V5.9091H182.191V19ZM184.015 4.2216C185.097 4.2216 185.984 3.3949 185.984 2.3807C185.984 1.37501 185.097 0.548309 184.015 0.548309C182.941 0.548309 182.055 1.37501 182.055 2.3807C182.055 3.3949 182.941 4.2216 184.015 4.2216Z" fill="#F8F8F8"/>
<path d="M192.361 11.4318C192.369 9.74433 193.375 8.7557 194.841 8.7557C196.298 8.7557 197.176 9.71024 197.168 11.3125V19H200.798V10.6648C200.798 7.61365 199.008 5.73865 196.281 5.73865C194.338 5.73865 192.932 6.6932 192.344 8.21876H192.19V5.9091H188.73V19H192.361V11.4318Z" fill="#F8F8F8"/>
<path d="M209.557 24.1818C213.299 24.1818 215.958 22.4773 215.958 19.1279V5.9091H212.353V8.10797H212.217C211.731 7.04263 210.665 5.73865 208.475 5.73865C205.603 5.73865 203.174 7.97161 203.174 12.429C203.174 16.7841 205.535 18.8125 208.484 18.8125C210.572 18.8125 211.739 17.7642 212.217 16.6818H212.37V19.0767C212.37 20.875 211.219 21.5739 209.643 21.5739C208.04 21.5739 207.231 20.875 206.932 20.0824L203.575 20.5341C204.009 22.5966 206.029 24.1818 209.557 24.1818ZM209.634 16.0852C207.853 16.0852 206.881 14.6705 206.881 12.4119C206.881 10.1875 207.836 8.62786 209.634 8.62786C211.398 8.62786 212.387 10.1193 212.387 12.4119C212.387 14.7216 211.381 16.0852 209.634 16.0852Z" fill="#F8F8F8"/>
<path d="M223.571 19.2216C224.662 19.2216 225.608 18.3097 225.616 17.1761C225.608 16.0597 224.662 15.1477 223.571 15.1477C222.446 15.1477 221.517 16.0597 221.526 17.1761C221.517 18.3097 222.446 19.2216 223.571 19.2216Z" fill="#FF57B2"/>
<path d="M10.9364 6.00186L0.69165 18.5835L10.9364 31.1631L13.3588 27.1416L6.45523 18.5814L13.3588 10.0212L10.9364 6.00186ZM15.4196 30.8627H19.9156L27.0637 6.23362H22.5656L15.4196 30.8627ZM31.9192 6.00186L29.4968 10.0234L36.4003 18.5835L29.4968 27.1437L31.9192 31.1652L42.1639 18.5857L31.9192 6.00186Z" fill="#FF57B2"/>
</svg>
